<svg xmlns="http://www.w3.org/2000/svg" width="96" height="96" viewBox="0 0 98 96"><path style="fill:#fff" d="M97.7 49.24c0 21.58-13.99 39.89-33.39 46.36-2.48.48-3.36-1.04-3.36-2.35 0-1.6.06-6.87.06-13.41 0-4.56-1.56-7.54-3.32-9.05C68.58 69.58 80 65.45 80 46.68c0-5.33-1.89-9.7-5.02-13.11.5-1.24 2.18-6.2-.49-12.93-2.73-.88-7.21.79-13.43 5.01-3.9-1.08-8.08-1.63-12.23-1.64-4.16.02-8.34.56-12.23 1.64-6.22-4.22-10.7-5.89-13.44-5.01-2.66 6.73-.98 11.7-.48 12.93-3.13 3.42-5.03 7.78-5.03 13.11 0 18.73 11.41 22.92 22.26 24.15-1.4 1.22-2.66 3.37-3.1 6.53-2.78 1.25-9.86 3.41-14.22-4.06-1.72-3.13-4.22-4.81-7.49-5.04-3.18-.04-3.29.95-.34 2.97 2.14 1 3.94 3.38 5.43 7.15 1.91 6.34 7.4 8.52 16.46 6.55.02 4.08.07 7.15.07 8.31 0 1.3-.89 2.8-3.34 2.36C13.96 89.14-.04 70.82-.04 49.23-.04 22.24 21.84.36 48.83.36S97.7 22.24 97.7 49.23z"/></svg>