<svg xmlns="http://www.w3.org/2000/svg" width="96" height="96" viewBox="0 0 98 96"><path style="fill:#fff" d="m97.7 49.24c0 21.58-13.99 39.89-33.39 46.36c-2.48 0.48-3.36-1.04-3.36-2.35c0-1.6 0.06-6.87 0.06-13.41c0-4.56-1.56-7.54-3.32-9.05c10.89-1.21 22.31-5.34 22.31-24.11c0-5.33-1.89-9.7-5.02-13.11c0.5-1.24 2.18-6.2-0.49-12.93c-2.73-0.88-7.21 0.79-13.43 5.01c-3.9-1.08-8.08-1.63-12.23-1.64c-4.16 0.02-8.34 0.56-12.23 1.64c-6.22-4.22-10.7-5.89-13.44-5.01c-2.66 6.73-0.98 11.7-0.48 12.93c-3.13 3.42-5.03 7.78-5.03 13.11c0 18.73 11.41 22.92 22.26 24.15c-1.4 1.22-2.66 3.37-3.1 6.53c-2.78 1.25-9.86 3.41-14.22-4.06c-1.72-3.13-4.22-4.81-7.49-5.04c-3.18-0.04-3.29 0.95-0.34 2.97c2.14 1 3.94 3.38 5.43 7.15c1.91 6.34 7.4 8.52 16.46 6.55c0.02 4.08 0.07 7.15 0.07 8.31c0 1.3-0.89 2.8-3.34 2.36c-19.42-6.46-33.42-24.78-33.42-46.37c0-26.99 21.88-48.87 48.87-48.87c26.99 0 48.87 21.88 48.87 48.87z"/></svg>